# WaveFront *.obj file (generated by Cinema 4D)

mtllib test1.mtl

v 0 -10000 0
v 0 10000 0
v 3826.834228515625 -9238.794921875 0
v 3535.533935546875 -9238.794921875 1464.466064453125
v 2705.98046875 -9238.794921875 2705.98046875
v 1464.466064453125 -9238.794921875 3535.533935546875
v 0.00000000000023 -9238.794921875 3826.834228515625
v -1464.466064453125 -9238.794921875 3535.533935546875
v -2705.98046875 -9238.794921875 2705.98046875
v -3535.533935546875 -9238.794921875 1464.466064453125
v -3826.834228515625 -9238.794921875 0.00000000000047
v -3535.533935546875 -9238.794921875 -1464.466064453125
v -2705.98046875 -9238.794921875 -2705.98046875
v -1464.466064453125 -9238.794921875 -3535.533935546875
v -0.0000000000007 -9238.794921875 -3826.834228515625
v 1464.466064453125 -9238.794921875 -3535.533935546875
v 2705.98046875 -9238.794921875 -2705.98046875
v 3535.533935546875 -9238.794921875 -1464.466064453125
v 7071.06787109375 -7071.06787109375 0
v 6532.81494140625 -7071.06787109375 2705.98046875
v 5000 -7071.06787109375 5000
v 2705.98046875 -7071.06787109375 6532.81494140625
v 0.00000000000043 -7071.06787109375 7071.06787109375
v -2705.98046875 -7071.06787109375 6532.81494140625
v -5000 -7071.06787109375 5000
v -6532.81494140625 -7071.06787109375 2705.98046875
v -7071.06787109375 -7071.06787109375 0.00000000000087
v -6532.81494140625 -7071.06787109375 -2705.98046875
v -5000 -7071.06787109375 -5000
v -2705.98046875 -7071.06787109375 -6532.81494140625
v -0.0000000000013 -7071.06787109375 -7071.06787109375
v 2705.98046875 -7071.06787109375 -6532.81494140625
v 5000 -7071.06787109375 -5000
v 6532.81494140625 -7071.06787109375 -2705.98046875
v 9238.794921875 -3826.834228515625 0
v 8535.5341796875 -3826.834228515625 3535.533935546875
v 6532.81494140625 -3826.834228515625 6532.81494140625
v 3535.533935546875 -3826.834228515625 8535.5341796875
v 0.00000000000057 -3826.834228515625 9238.794921875
v -3535.533935546875 -3826.834228515625 8535.5341796875
v -6532.81494140625 -3826.834228515625 6532.81494140625
v -8535.5341796875 -3826.834228515625 3535.533935546875
v -9238.794921875 -3826.834228515625 0.00000000000113
v -8535.5341796875 -3826.834228515625 -3535.533935546875
v -6532.81494140625 -3826.834228515625 -6532.81494140625
v -3535.533935546875 -3826.834228515625 -8535.5341796875
v -0.0000000000017 -3826.834228515625 -9238.794921875
v 3535.533935546875 -3826.834228515625 -8535.5341796875
v 6532.81494140625 -3826.834228515625 -6532.81494140625
v 8535.5341796875 -3826.834228515625 -3535.533935546875
v 10000 0 0
v 9238.794921875 0 3826.834228515625
v 7071.06787109375 0 7071.06787109375
v 3826.834228515625 0 9238.794921875
v 0.00000000000061 0 10000
v -3826.834228515625 0 9238.794921875
v -7071.06787109375 0 7071.06787109375
v -9238.794921875 0 3826.834228515625
v -10000 0 0.00000000000122
v -9238.794921875 0 -3826.834228515625
v -7071.06787109375 0 -7071.06787109375
v -3826.834228515625 0 -9238.794921875
v -0.00000000000184 0 -10000
v 3826.834228515625 0 -9238.794921875
v 7071.06787109375 0 -7071.06787109375
v 9238.794921875 0 -3826.834228515625
v 9238.794921875 3826.834228515625 0
v 8535.5341796875 3826.834228515625 3535.533935546875
v 6532.81494140625 3826.834228515625 6532.81494140625
v 3535.533935546875 3826.834228515625 8535.5341796875
v 0.00000000000057 3826.834228515625 9238.794921875
v -3535.533935546875 3826.834228515625 8535.5341796875
v -6532.81494140625 3826.834228515625 6532.81494140625
v -8535.5341796875 3826.834228515625 3535.533935546875
v -9238.794921875 3826.834228515625 0.00000000000113
v -8535.5341796875 3826.834228515625 -3535.533935546875
v -6532.81494140625 3826.834228515625 -6532.81494140625
v -3535.533935546875 3826.834228515625 -8535.5341796875
v -0.0000000000017 3826.834228515625 -9238.794921875
v 3535.533935546875 3826.834228515625 -8535.5341796875
v 6532.81494140625 3826.834228515625 -6532.81494140625
v 8535.5341796875 3826.834228515625 -3535.533935546875
v 7071.06787109375 7071.06787109375 0
v 6532.81494140625 7071.06787109375 2705.98046875
v 5000 7071.06787109375 5000
v 2705.98046875 7071.06787109375 6532.81494140625
v 0.00000000000043 7071.06787109375 7071.06787109375
v -2705.98046875 7071.06787109375 6532.81494140625
v -5000 7071.06787109375 5000
v -6532.81494140625 7071.06787109375 2705.98046875
v -7071.06787109375 7071.06787109375 0.00000000000087
v -6532.81494140625 7071.06787109375 -2705.98046875
v -5000 7071.06787109375 -5000
v -2705.98046875 7071.06787109375 -6532.81494140625
v -0.0000000000013 7071.06787109375 -7071.06787109375
v 2705.98046875 7071.06787109375 -6532.81494140625
v 5000 7071.06787109375 -5000
v 6532.81494140625 7071.06787109375 -2705.98046875
v 3826.834228515625 9238.794921875 0
v 3535.533935546875 9238.794921875 1464.466064453125
v 2705.98046875 9238.794921875 2705.98046875
v 1464.466064453125 9238.794921875 3535.533935546875
v 0.00000000000023 9238.794921875 3826.834228515625
v -1464.466064453125 9238.794921875 3535.533935546875
v -2705.98046875 9238.794921875 2705.98046875
v -3535.533935546875 9238.794921875 1464.466064453125
v -3826.834228515625 9238.794921875 0.00000000000047
v -3535.533935546875 9238.794921875 -1464.466064453125
v -2705.98046875 9238.794921875 -2705.98046875
v -1464.466064453125 9238.794921875 -3535.533935546875
v -0.0000000000007 9238.794921875 -3826.834228515625
v 1464.466064453125 9238.794921875 -3535.533935546875
v 2705.98046875 9238.794921875 -2705.98046875
v 3535.533935546875 9238.794921875 -1464.466064453125
# 114 vertices

vn 0.38219481706619 -0.92408174276352 -0.00000000095281
vn 0.70658451318741 -0.70762866735458 0
vn 0.65279901027679 -0.70762866735458 0.27039822936058
vn 0.35310193896294 -0.92408174276352 0.1462596654892
vn 0.49963065981865 -0.70762866735458 0.49963074922562
vn 0.27025252580643 -0.92408174276352 0.27025255560875
vn 0.27039822936058 -0.70762866735458 0.65279901027679
vn 0.14625965058804 -0.92408180236816 0.35310193896294
vn 0 -0.70762866735458 0.70658451318741
vn 0.00000000381124 -0.92408174276352 0.38219481706619
vn -0.27039822936058 -0.70762866735458 0.65279901027679
vn -0.1462596654892 -0.92408174276352 0.35310193896294
vn -0.49963074922562 -0.70762866735458 0.49963065981865
vn -0.27025255560875 -0.92408174276352 0.27025252580643
vn -0.65279895067215 -0.70762866735458 0.27039819955826
vn -0.35310193896294 -0.92408180236816 0.14625965058804
vn -0.70658451318741 -0.70762866735458 -0.00000000383558
vn -0.38219481706619 -0.92408174276352 0
vn -0.65279901027679 -0.70762866735458 -0.27039822936058
vn -0.35310193896294 -0.92408174276352 -0.1462596654892
vn -0.49963065981865 -0.70762866735458 -0.49963074922562
vn -0.27025252580643 -0.92408174276352 -0.27025255560875
vn -0.27039822936058 -0.70762866735458 -0.65279901027679
vn -0.14625965058804 -0.92408180236816 -0.35310193896294
vn 0 -0.70762866735458 -0.70658451318741
vn -0.00000000381124 -0.92408174276352 -0.38219481706619
vn 0.27039822936058 -0.70762866735458 -0.65279901027679
vn 0.1462596654892 -0.92408174276352 -0.35310193896294
vn 0.49963074922562 -0.70762866735458 -0.49963065981865
vn 0.27025255560875 -0.92408174276352 -0.27025252580643
vn 0.65279895067215 -0.70762866735458 -0.27039819955826
vn 0.35310193896294 -0.92408180236816 -0.14625965058804
vn 0.9236820936203 -0.38315969705582 0.00000000385985
vn 0.85337096452713 -0.38315972685814 0.35347786545753
vn 0.65314185619354 -0.38315969705582 0.65314185619354
vn 0.35347786545753 -0.38315975666046 0.85337096452713
vn -0.00000000385985 -0.38315972685814 0.9236820936203
vn -0.35347786545753 -0.38315972685814 0.85337096452713
vn -0.65314185619354 -0.38315969705582 0.65314185619354
vn -0.85337096452713 -0.38315972685814 0.35347786545753
vn -0.9236820936203 -0.38315972685814 -0.00000000385985
vn -0.85337096452713 -0.38315972685814 -0.35347786545753
vn -0.65314185619354 -0.38315969705582 -0.65314185619354
vn -0.35347786545753 -0.38315975666046 -0.85337096452713
vn 0.00000000385985 -0.38315972685814 -0.9236820936203
vn 0.35347786545753 -0.38315972685814 -0.85337096452713
vn 0.65314185619354 -0.38315969705582 -0.65314185619354
vn 0.85337096452713 -0.38315972685814 -0.35347786545753
vn 1 0 0
vn 0.9238795042038 0.00000000386988 0.38268345594406
vn 0.70710676908493 0.00000000386988 0.70710676908493
vn 0.38268342614174 0.00000000386988 0.9238795042038
vn 0 0.00000000386988 1
vn -0.38268345594406 0.00000000386988 0.9238795042038
vn -0.70710676908493 0.00000000386988 0.70710676908493
vn -0.9238795042038 0.00000000386988 0.38268342614174
vn -1 0.00000000386988 0
vn -0.9238795042038 0.00000000386988 -0.38268345594406
vn -0.70710676908493 0.00000000386988 -0.70710676908493
vn -0.38268342614174 0.00000000386988 -0.9238795042038
vn 0 0.00000000386988 -1
vn 0.38268345594406 0.00000000386988 -0.9238795042038
vn 0.70710676908493 0.00000000386988 -0.70710676908493
vn 0.9238795042038 0.00000000386988 -0.38268342614174
vn 0.9236820936203 0.38315969705582 -0.00000001157955
vn 0.85337096452713 0.38315972685814 0.35347786545753
vn 0.65314185619354 0.38315969705582 0.65314185619354
vn 0.35347786545753 0.38315969705582 0.85337096452713
vn 0.00000001157955 0.38315972685814 0.9236820936203
vn -0.35347786545753 0.38315972685814 0.85337096452713
vn -0.65314185619354 0.38315969705582 0.65314185619354
vn -0.85337096452713 0.38315969705582 0.35347786545753
vn -0.9236820936203 0.38315972685814 0.00000001157955
vn -0.85337096452713 0.38315972685814 -0.35347786545753
vn -0.65314185619354 0.38315969705582 -0.65314185619354
vn -0.35347786545753 0.38315969705582 -0.85337096452713
vn -0.00000001157955 0.38315972685814 -0.9236820936203
vn 0.35347786545753 0.38315972685814 -0.85337096452713
vn 0.65314185619354 0.38315969705582 -0.65314185619354
vn 0.85337096452713 0.38315969705582 -0.35347786545753
vn 0.70658451318741 0.70762860774994 -0.00000000767116
vn 0.65279901027679 0.70762866735458 0.27039819955826
vn 0.49963074922562 0.70762866735458 0.49963065981865
vn 0.27039819955826 0.70762866735458 0.65279901027679
vn 0.00000000958895 0.70762866735458 0.70658451318741
vn -0.27039819955826 0.70762866735458 0.65279901027679
vn -0.49963065981865 0.70762866735458 0.49963074922562
vn -0.65279901027679 0.70762866735458 0.27039819955826
vn -0.70658451318741 0.70762866735458 0.00000000958895
vn -0.65279901027679 0.70762866735458 -0.27039819955826
vn -0.49963074922562 0.70762866735458 -0.49963065981865
vn -0.27039819955826 0.70762866735458 -0.65279901027679
vn -0.00000000958895 0.70762866735458 -0.70658451318741
vn 0.27039819955826 0.70762866735458 -0.65279901027679
vn 0.49963065981865 0.70762866735458 -0.49963074922562
vn 0.65279901027679 0.70762866735458 -0.27039819955826
vn 0.38219484686852 0.92408174276352 0
vn 0.35310196876526 0.92408174276352 0.14625963568687
vn 0.27025255560875 0.92408174276352 0.27025252580643
vn 0.14625965058804 0.92408174276352 0.35310199856758
vn 0.00000000095281 0.92408174276352 0.38219481706619
vn -0.14625963568687 0.92408174276352 0.35310196876526
vn -0.27025252580643 0.92408174276352 0.27025255560875
vn -0.35310199856758 0.92408174276352 0.14625965058804
vn -0.38219481706619 0.92408174276352 0.00000000095281
vn -0.35310196876526 0.92408174276352 -0.14625963568687
vn -0.27025255560875 0.92408174276352 -0.27025252580643
vn -0.14625965058804 0.92408174276352 -0.35310199856758
vn -0.00000000095281 0.92408174276352 -0.38219481706619
vn 0.14625963568687 0.92408174276352 -0.35310196876526
vn 0.27025252580643 0.92408174276352 -0.27025255560875
vn 0.35310199856758 0.92408174276352 -0.14625965058804
vn 0.00000000095028 -1 -0.00000000095028
vn 0 0 0
vn -0.00000000285085 1 -0.00000000593927
# 115 normals

vt 0 0.125 0
vt 0 0.25 0
vt 0.0625 0.25 0
vt 0.0625 0.125 0
vt 0.125 0.25 0
vt 0.125 0.125 0
vt 0.1875 0.25 0
vt 0.1875 0.125 0
vt 0.25 0.25 0
vt 0.25 0.125 0
vt 0.3125 0.25 0
vt 0.3125 0.125 0
vt 0.375 0.25 0
vt 0.375 0.125 0
vt 0.4375 0.25 0
vt 0.4375 0.125 0
vt 0.5 0.25 0
vt 0.5 0.125 0
vt 0.5625 0.25 0
vt 0.5625 0.125 0
vt 0.625 0.25 0
vt 0.625 0.125 0
vt 0.6875 0.25 0
vt 0.6875 0.125 0
vt 0.75 0.25 0
vt 0.75 0.125 0
vt 0.8125 0.25 0
vt 0.8125 0.125 0
vt 0.875 0.25 0
vt 0.875 0.125 0
vt 0.9375 0.25 0
vt 0.9375 0.125 0
vt 1 0.25 0
vt 1 0.125 0
vt 0 0.375 0
vt 0.0625 0.375 0
vt 0.125 0.375 0
vt 0.1875 0.375 0
vt 0.25 0.375 0
vt 0.3125 0.375 0
vt 0.375 0.375 0
vt 0.4375 0.375 0
vt 0.5 0.375 0
vt 0.5625 0.375 0
vt 0.625 0.375 0
vt 0.6875 0.375 0
vt 0.75 0.375 0
vt 0.8125 0.375 0
vt 0.875 0.375 0
vt 0.9375 0.375 0
vt 1 0.375 0
vt 0 0.5 0
vt 0.0625 0.5 0
vt 0.125 0.5 0
vt 0.1875 0.5 0
vt 0.25 0.5 0
vt 0.3125 0.5 0
vt 0.375 0.5 0
vt 0.4375 0.5 0
vt 0.5 0.5 0
vt 0.5625 0.5 0
vt 0.625 0.5 0
vt 0.6875 0.5 0
vt 0.75 0.5 0
vt 0.8125 0.5 0
vt 0.875 0.5 0
vt 0.9375 0.5 0
vt 1 0.5 0
vt 0 0.625 0
vt 0.0625 0.625 0
vt 0.125 0.625 0
vt 0.1875 0.625 0
vt 0.25 0.625 0
vt 0.3125 0.625 0
vt 0.375 0.625 0
vt 0.4375 0.625 0
vt 0.5 0.625 0
vt 0.5625 0.625 0
vt 0.625 0.625 0
vt 0.6875 0.625 0
vt 0.75 0.625 0
vt 0.8125 0.625 0
vt 0.875 0.625 0
vt 0.9375 0.625 0
vt 1 0.625 0
vt 0 0.75 0
vt 0.0625 0.75 0
vt 0.125 0.75 0
vt 0.1875 0.75 0
vt 0.25 0.75 0
vt 0.3125 0.75 0
vt 0.375 0.75 0
vt 0.4375 0.75 0
vt 0.5 0.75 0
vt 0.5625 0.75 0
vt 0.625 0.75 0
vt 0.6875 0.75 0
vt 0.75 0.75 0
vt 0.8125 0.75 0
vt 0.875 0.75 0
vt 0.9375 0.75 0
vt 1 0.75 0
vt 0 0.875 0
vt 0.0625 0.875 0
vt 0.125 0.875 0
vt 0.1875 0.875 0
vt 0.25 0.875 0
vt 0.3125 0.875 0
vt 0.375 0.875 0
vt 0.4375 0.875 0
vt 0.5 0.875 0
vt 0.5625 0.875 0
vt 0.625 0.875 0
vt 0.6875 0.875 0
vt 0.75 0.875 0
vt 0.8125 0.875 0
vt 0.875 0.875 0
vt 0.9375 0.875 0
vt 1 0.875 0
vt 0 0 0
vt 0 1 0
vt 0.0625 0 0
vt 0.0625 1 0
vt 0.125 0 0
vt 0.125 1 0
vt 0.1875 0 0
vt 0.1875 1 0
vt 0.25 0 0
vt 0.25 1 0
vt 0.3125 0 0
vt 0.3125 1 0
vt 0.375 0 0
vt 0.375 1 0
vt 0.4375 0 0
vt 0.4375 1 0
vt 0.5 0 0
vt 0.5 1 0
vt 0.5625 0 0
vt 0.5625 1 0
vt 0.625 0 0
vt 0.625 1 0
vt 0.6875 0 0
vt 0.6875 1 0
vt 0.75 0 0
vt 0.75 1 0
vt 0.8125 0 0
vt 0.8125 1 0
vt 0.875 0 0
vt 0.875 1 0
vt 0.9375 0 0
vt 0.9375 1 0
# 151 texture coordinates

o Ball
usemtl Material
f 3/1/1 19/2/2 20/3/3 4/4/4
f 4/4/4 20/3/3 21/5/5 5/6/6
f 5/6/6 21/5/5 22/7/7 6/8/8
f 6/8/8 22/7/7 23/9/9 7/10/10
f 7/10/10 23/9/9 24/11/11 8/12/12
f 8/12/12 24/11/11 25/13/13 9/14/14
f 9/14/14 25/13/13 26/15/15 10/16/16
f 10/16/16 26/15/15 27/17/17 11/18/18
f 11/18/18 27/17/17 28/19/19 12/20/20
f 12/20/20 28/19/19 29/21/21 13/22/22
f 13/22/22 29/21/21 30/23/23 14/24/24
f 14/24/24 30/23/23 31/25/25 15/26/26
f 15/26/26 31/25/25 32/27/27 16/28/28
f 16/28/28 32/27/27 33/29/29 17/30/30
f 17/30/30 33/29/29 34/31/31 18/32/32
f 18/32/32 34/31/31 19/33/2 3/34/1
f 19/2/2 35/35/33 36/36/34 20/3/3
f 20/3/3 36/36/34 37/37/35 21/5/5
f 21/5/5 37/37/35 38/38/36 22/7/7
f 22/7/7 38/38/36 39/39/37 23/9/9
f 23/9/9 39/39/37 40/40/38 24/11/11
f 24/11/11 40/40/38 41/41/39 25/13/13
f 25/13/13 41/41/39 42/42/40 26/15/15
f 26/15/15 42/42/40 43/43/41 27/17/17
f 27/17/17 43/43/41 44/44/42 28/19/19
f 28/19/19 44/44/42 45/45/43 29/21/21
f 29/21/21 45/45/43 46/46/44 30/23/23
f 30/23/23 46/46/44 47/47/45 31/25/25
f 31/25/25 47/47/45 48/48/46 32/27/27
f 32/27/27 48/48/46 49/49/47 33/29/29
f 33/29/29 49/49/47 50/50/48 34/31/31
f 34/31/31 50/50/48 35/51/33 19/33/2
f 35/35/33 51/52/49 52/53/50 36/36/34
f 36/36/34 52/53/50 53/54/51 37/37/35
f 37/37/35 53/54/51 54/55/52 38/38/36
f 38/38/36 54/55/52 55/56/53 39/39/37
f 39/39/37 55/56/53 56/57/54 40/40/38
f 40/40/38 56/57/54 57/58/55 41/41/39
f 41/41/39 57/58/55 58/59/56 42/42/40
f 42/42/40 58/59/56 59/60/57 43/43/41
f 43/43/41 59/60/57 60/61/58 44/44/42
f 44/44/42 60/61/58 61/62/59 45/45/43
f 45/45/43 61/62/59 62/63/60 46/46/44
f 46/46/44 62/63/60 63/64/61 47/47/45
f 47/47/45 63/64/61 64/65/62 48/48/46
f 48/48/46 64/65/62 65/66/63 49/49/47
f 49/49/47 65/66/63 66/67/64 50/50/48
f 50/50/48 66/67/64 51/68/49 35/51/33
f 51/52/49 67/69/65 68/70/66 52/53/50
f 52/53/50 68/70/66 69/71/67 53/54/51
f 53/54/51 69/71/67 70/72/68 54/55/52
f 54/55/52 70/72/68 71/73/69 55/56/53
f 55/56/53 71/73/69 72/74/70 56/57/54
f 56/57/54 72/74/70 73/75/71 57/58/55
f 57/58/55 73/75/71 74/76/72 58/59/56
f 58/59/56 74/76/72 75/77/73 59/60/57
f 59/60/57 75/77/73 76/78/74 60/61/58
f 60/61/58 76/78/74 77/79/75 61/62/59
f 61/62/59 77/79/75 78/80/76 62/63/60
f 62/63/60 78/80/76 79/81/77 63/64/61
f 63/64/61 79/81/77 80/82/78 64/65/62
f 64/65/62 80/82/78 81/83/79 65/66/63
f 65/66/63 81/83/79 82/84/80 66/67/64
f 66/67/64 82/84/80 67/85/65 51/68/49
f 67/69/65 83/86/81 84/87/82 68/70/66
f 68/70/66 84/87/82 85/88/83 69/71/67
f 69/71/67 85/88/83 86/89/84 70/72/68
f 70/72/68 86/89/84 87/90/85 71/73/69
f 71/73/69 87/90/85 88/91/86 72/74/70
f 72/74/70 88/91/86 89/92/87 73/75/71
f 73/75/71 89/92/87 90/93/88 74/76/72
f 74/76/72 90/93/88 91/94/89 75/77/73
f 75/77/73 91/94/89 92/95/90 76/78/74
f 76/78/74 92/95/90 93/96/91 77/79/75
f 77/79/75 93/96/91 94/97/92 78/80/76
f 78/80/76 94/97/92 95/98/93 79/81/77
f 79/81/77 95/98/93 96/99/94 80/82/78
f 80/82/78 96/99/94 97/100/95 81/83/79
f 81/83/79 97/100/95 98/101/96 82/84/80
f 82/84/80 98/101/96 83/102/81 67/85/65
f 83/86/81 99/103/97 100/104/98 84/87/82
f 84/87/82 100/104/98 101/105/99 85/88/83
f 85/88/83 101/105/99 102/106/100 86/89/84
f 86/89/84 102/106/100 103/107/101 87/90/85
f 87/90/85 103/107/101 104/108/102 88/91/86
f 88/91/86 104/108/102 105/109/103 89/92/87
f 89/92/87 105/109/103 106/110/104 90/93/88
f 90/93/88 106/110/104 107/111/105 91/94/89
f 91/94/89 107/111/105 108/112/106 92/95/90
f 92/95/90 108/112/106 109/113/107 93/96/91
f 93/96/91 109/113/107 110/114/108 94/97/92
f 94/97/92 110/114/108 111/115/109 95/98/93
f 95/98/93 111/115/109 112/116/110 96/99/94
f 96/99/94 112/116/110 113/117/111 97/100/95
f 97/100/95 113/117/111 114/118/112 98/101/96
f 98/101/96 114/118/112 99/119/97 83/102/81
f 1/120/113 3/1/1 4/4/4
f 100/104/98 99/103/97 2/121/115
f 1/122/113 4/4/4 5/6/6
f 101/105/99 100/104/98 2/123/115
f 1/124/113 5/6/6 6/8/8
f 102/106/100 101/105/99 2/125/115
f 1/126/113 6/8/8 7/10/10
f 103/107/101 102/106/100 2/127/115
f 1/128/113 7/10/10 8/12/12
f 104/108/102 103/107/101 2/129/115
f 1/130/113 8/12/12 9/14/14
f 105/109/103 104/108/102 2/131/115
f 1/132/113 9/14/14 10/16/16
f 106/110/104 105/109/103 2/133/115
f 1/134/113 10/16/16 11/18/18
f 107/111/105 106/110/104 2/135/115
f 1/136/113 11/18/18 12/20/20
f 108/112/106 107/111/105 2/137/115
f 1/138/113 12/20/20 13/22/22
f 109/113/107 108/112/106 2/139/115
f 1/140/113 13/22/22 14/24/24
f 110/114/108 109/113/107 2/141/115
f 1/142/113 14/24/24 15/26/26
f 111/115/109 110/114/108 2/143/115
f 1/144/113 15/26/26 16/28/28
f 112/116/110 111/115/109 2/145/115
f 1/146/113 16/28/28 17/30/30
f 113/117/111 112/116/110 2/147/115
f 1/148/113 17/30/30 18/32/32
f 114/118/112 113/117/111 2/149/115
f 1/150/113 18/32/32 3/34/1
f 99/119/97 114/118/112 2/151/115

